<?xml version="1.0" standalone="no"?>
<!DOCTYPE svg PUBLIC "-//W3C//DTD SVG 20010904//EN"
 "http://www.w3.org/TR/2001/REC-SVG-20010904/DTD/svg10.dtd">
<svg version="1.0" xmlns="http://www.w3.org/2000/svg"
 width="1123.000000pt" height="1123.000000pt" viewBox="0 0 1123.000000 1123.000000"
 preserveAspectRatio="xMidYMid meet">
<metadata>
Created by potrace 1.14, written by Peter Selinger 2001-2017
</metadata>
<g transform="translate(0.000000,1123.000000) scale(0.100000,-0.100000)"
fill="#000000" stroke="none">
<path d="M2391 8850 c-4 -3 -7 -1457 -7 -3232 l0 -3228 28 -1 c15 0 41 -1 56
-2 15 0 35 2 44 5 9 4 19 4 22 0 10 -9 106 -8 106 1 0 5 5 5 11 1 10 -6 318
-10 344 -4 6 1 15 1 20 0 28 -6 105 -4 105 3 0 5 5 5 11 1 10 -6 318 -10 344
-4 6 1 15 1 20 0 28 -6 105 -4 105 3 0 5 5 5 11 1 10 -6 386 -9 414 -4 6 1 15
1 20 0 12 -3 286 -3 300 0 6 1 15 1 20 0 12 -3 286 -3 300 0 6 1 15 1 20 0 12
-3 286 -3 300 0 6 1 15 1 20 0 13 -3 217 -3 230 0 6 1 15 1 20 0 28 -6 105 -4
105 3 0 5 5 5 11 1 10 -6 318 -10 344 -4 6 1 15 1 20 0 28 -6 105 -4 105 3 0
5 5 5 11 1 14 -9 333 -9 347 0 6 3 13 3 16 -2 5 -9 99 -7 115 2 5 4 12 3 14
-1 4 -7 144 -9 172 -3 6 1 15 1 20 0 28 -6 105 -4 105 3 0 5 5 5 11 1 10 -6
318 -10 344 -4 6 1 15 1 20 0 28 -6 105 -4 105 3 0 5 5 5 11 1 14 -9 333 -9
347 0 6 3 13 3 16 -2 4 -7 82 -8 111 -2 6 1 12 1 15 0 7 -2 232 -2 245 0 6 1
15 1 20 0 12 -3 286 -3 300 0 6 1 15 1 20 0 12 -3 286 -3 300 0 6 1 15 1 20 0
12 -3 286 -3 300 0 6 1 13 2 16 2 3 0 5 1452 5 3229 l0 3229 -40 1 c-267 3
-6410 3 -6415 -1z"/>
</g>
</svg>
